<svg width="70" height="76" viewBox="0 0 70 76" fill="none" xmlns="http://www.w3.org/2000/svg">
<path d="M29.714 75.8762C29.4781 75.82 29.2358 75.7735 29.0029 75.7041C28.5977 75.5711 28.211 75.3887 27.8517 75.1613C19.9644 70.467 12.0738 65.7717 4.1789 61.0749C2.47823 60.0608 1.35866 58.5561 0.590791 56.7728C0.194298 55.8432 -0.00667949 54.8423 0.00205868 53.8325C0.00970455 45.3669 0.00970455 36.9013 0.00205868 28.4356C-0.0154176 27.9145 0.0785175 27.3956 0.278403 26.9134C0.713127 25.9417 1.61316 25.478 2.66938 25.6697C3.20787 25.778 3.72452 25.9763 4.19528 26.258C9.0799 29.0402 13.9667 31.8212 18.8546 34.6012C21.8136 36.2837 24.7616 37.9847 27.7348 39.6455C29.5154 40.6401 30.7571 42.0907 31.6112 43.8978C32.1072 44.9531 32.3551 46.1069 32.3354 47.2715C32.2994 52.3753 32.2896 57.4794 32.2679 62.582C32.2546 66.0597 32.2404 69.5374 32.224 73.0151C32.224 73.5437 32.1804 74.0669 31.9695 74.5623C31.6724 75.262 31.1689 75.7138 30.3977 75.8429C30.3737 75.8503 30.3519 75.861 30.3322 75.8752L29.714 75.8762ZM39.6747 75.8762C39.5622 75.8439 39.441 75.817 39.3263 75.7808C38.5027 75.5143 38.0909 74.8992 37.8899 74.1095C37.7599 73.5858 37.784 73.0508 37.7776 72.5178C37.7567 67.2729 37.7359 62.0275 37.7163 56.7816C37.7043 53.6257 37.7163 50.4697 37.6671 47.3134C37.6398 45.4899 38.2351 43.8918 39.2389 42.4118C40.0046 41.284 41.0237 40.3479 42.2176 39.6772C50.0788 35.2221 57.9315 30.755 65.7739 26.2771C66.317 25.9683 66.8785 25.7202 67.5096 25.653C68.7452 25.5295 69.5873 26.2186 69.8799 27.3703C69.9303 27.5675 69.9605 27.7701 70 27.9705V54.5802C69.953 54.8692 69.9605 55.164 69.8873 55.4535C69.5512 56.8682 68.8835 58.1165 67.9791 59.252C67.265 60.1512 66.364 60.8109 65.3805 61.3952C57.679 65.9736 49.976 70.5599 42.2711 75.1515C41.8288 75.4322 41.3492 75.6522 40.8457 75.8048C40.6644 75.8537 40.4754 75.8332 40.2941 75.8762H39.6747ZM35.2716 36.7975C33.5074 36.8007 31.7748 36.3403 30.2503 35.4647C21.8142 30.5868 13.3672 25.7251 4.91145 20.8785C4.34014 20.5456 3.82137 20.1629 3.42955 19.6279C2.76084 18.7114 2.77397 17.6629 3.46239 16.7615C3.8159 16.3161 4.25696 15.9454 4.75932 15.673C8.44655 13.5707 12.137 11.4695 15.8308 9.36939C20.6048 6.65212 25.3777 3.9348 30.1529 1.21749C31.2276 0.605723 32.3954 0.294437 33.619 0.178781C35.148 0.0220594 36.6933 0.20148 38.1424 0.704084C38.9063 0.971058 39.5829 1.40016 40.2809 1.79792C48.5332 6.5397 56.781 11.2804 65.0246 16.0222C65.5495 16.3043 66.019 16.6782 66.41 17.1257C67.2778 18.1806 67.2328 19.415 66.2973 20.4104C65.9439 20.7715 65.5367 21.0784 65.0914 21.3195L52.0374 28.7504C47.9651 31.0678 43.8927 33.3862 39.8191 35.7047C38.7936 36.2722 37.6586 36.6213 36.4876 36.7283C36.0837 36.7726 35.6777 36.7953 35.2716 36.7975Z" fill="url(#paint0_linear_716_656)"/>
<path d="M29.714 75.8762C29.4781 75.82 29.2358 75.7735 29.0029 75.7041C28.5977 75.5711 28.211 75.3887 27.8517 75.1613C19.9644 70.467 12.0738 65.7717 4.1789 61.0749C2.47823 60.0608 1.35866 58.5561 0.590791 56.7728C0.194298 55.8432 -0.00667949 54.8423 0.00205868 53.8325C0.00970455 45.3669 0.00970455 36.9013 0.00205868 28.4356C-0.0154176 27.9145 0.0785175 27.3956 0.278403 26.9134C0.713127 25.9417 1.61316 25.478 2.66938 25.6697C3.20787 25.778 3.72452 25.9763 4.19528 26.258C9.0799 29.0402 13.9667 31.8212 18.8546 34.6012C21.8136 36.2837 24.7616 37.9847 27.7348 39.6455C29.5154 40.6401 30.7571 42.0907 31.6112 43.8978C32.1072 44.9531 32.3551 46.1069 32.3354 47.2715C32.2994 52.3753 32.2896 57.4794 32.2679 62.582C32.2546 66.0597 32.2404 69.5374 32.224 73.0151C32.224 73.5437 32.1804 74.0669 31.9695 74.5623C31.6724 75.262 31.1689 75.7138 30.3977 75.8429C30.3737 75.8503 30.3519 75.861 30.3322 75.8752L29.714 75.8762ZM39.6747 75.8762C39.5622 75.8439 39.441 75.817 39.3263 75.7808C38.5027 75.5143 38.0909 74.8992 37.8899 74.1095C37.7599 73.5858 37.784 73.0508 37.7776 72.5178C37.7567 67.2729 37.7359 62.0275 37.7163 56.7816C37.7043 53.6257 37.7163 50.4697 37.6671 47.3134C37.6398 45.4899 38.2351 43.8918 39.2389 42.4118C40.0046 41.284 41.0237 40.3479 42.2176 39.6772C50.0788 35.2221 57.9315 30.755 65.7739 26.2771C66.317 25.9683 66.8785 25.7202 67.5096 25.653C68.7452 25.5295 69.5873 26.2186 69.8799 27.3703C69.9303 27.5675 69.9605 27.7701 70 27.9705V54.5802C69.953 54.8692 69.9605 55.164 69.8873 55.4535C69.5512 56.8682 68.8835 58.1165 67.9791 59.252C67.265 60.1512 66.364 60.8109 65.3805 61.3952C57.679 65.9736 49.976 70.5599 42.2711 75.1515C41.8288 75.4322 41.3492 75.6522 40.8457 75.8048C40.6644 75.8537 40.4754 75.8332 40.2941 75.8762H39.6747ZM35.2716 36.7975C33.5074 36.8007 31.7748 36.3403 30.2503 35.4647C21.8142 30.5868 13.3672 25.7251 4.91145 20.8785C4.34014 20.5456 3.82137 20.1629 3.42955 19.6279C2.76084 18.7114 2.77397 17.6629 3.46239 16.7615C3.8159 16.3161 4.25696 15.9454 4.75932 15.673C8.44655 13.5707 12.137 11.4695 15.8308 9.36939C20.6048 6.65212 25.3777 3.9348 30.1529 1.21749C31.2276 0.605723 32.3954 0.294437 33.619 0.178781C35.148 0.0220594 36.6933 0.20148 38.1424 0.704084C38.9063 0.971058 39.5829 1.40016 40.2809 1.79792C48.5332 6.5397 56.781 11.2804 65.0246 16.0222C65.5495 16.3043 66.019 16.6782 66.41 17.1257C67.2778 18.1806 67.2328 19.415 66.2973 20.4104C65.9439 20.7715 65.5367 21.0784 65.0914 21.3195L52.0374 28.7504C47.9651 31.0678 43.8927 33.3862 39.8191 35.7047C38.7936 36.2722 37.6586 36.6213 36.4876 36.7283C36.0837 36.7726 35.6777 36.7953 35.2716 36.7975Z" fill="url(#paint1_linear_716_656)"/>
<defs>
<linearGradient id="paint0_linear_716_656" x1="68.7588" y1="-9.34523" x2="-3.00621" y2="87.8219" gradientUnits="userSpaceOnUse">
<stop offset="1" stop-color="#00D6A1"/>
</linearGradient>
<linearGradient id="paint1_linear_716_656" x1="92.9485" y1="74.4733" x2="7.84933" y2="1.75734" gradientUnits="userSpaceOnUse">
<stop offset="0.386368" stop-color="#D9FFF6" stop-opacity="0"/>
<stop offset="1" stop-color="#01BCF6"/>
</linearGradient>
</defs>
</svg>
