<svg width="25" height="32" viewBox="0 0 25 32" fill="none" xmlns="http://www.w3.org/2000/svg">
<g clip-path="url(#clip0_893_654)">
<path d="M2.0086 17.4464L2.0086 17.4465C2.01904 20.2305 2.03005 23.0143 2.04117 25.7979C2.04201 25.8694 2.04244 25.931 2.04281 25.9849C2.04433 26.2045 2.04495 26.2948 2.06884 26.3927C2.08916 26.4715 2.10873 26.51 2.11744 26.5246C2.11936 26.5254 2.12164 26.5262 2.12432 26.5271C2.12478 26.5273 2.12529 26.5274 2.12585 26.5276H2.22625C2.24435 26.5252 2.26106 26.5232 2.27614 26.5216C2.31054 26.518 2.34434 26.5154 2.36717 26.5138C2.51809 26.4623 2.66214 26.3932 2.79628 26.3081L2.80881 26.3001L2.82157 26.2925C6.91305 23.8542 11.0036 21.4188 15.0935 18.9874L15.0937 18.9873C15.5638 18.708 15.9191 18.4358 16.1844 18.1018L16.1854 18.1005C16.5862 17.5973 16.8598 17.0733 16.996 16.4998L16.9978 16.4924L16.999 16.4878C16.9993 16.4854 17.0022 16.4679 17.0067 16.418C17.0085 16.3981 17.0138 16.3349 17.0177 16.2947C17.0201 16.269 17.0232 16.2398 17.0271 16.208V2.25216C17.0232 2.23075 17.0201 2.21338 17.0175 2.19848C17.0101 2.15673 17.0062 2.1343 16.9964 2.09629L16.996 2.0947C16.9789 2.02707 16.9597 1.9927 16.9494 1.97803C16.9378 1.97623 16.9142 1.97414 16.8756 1.97775C16.7513 1.99166 16.6021 2.04402 16.3707 2.17552C12.2058 4.55363 8.03535 6.92601 3.86042 9.29205L3.85692 9.29403L3.85692 9.29403C3.36611 9.56973 2.94795 9.95406 2.63403 10.4163L2.0086 17.4464ZM2.0086 17.4464C2.00682 16.9787 2.00604 16.509 2.00526 16.038M2.0086 17.4464L2.00526 16.038M2.00526 16.038C2.00326 14.8323 2.00124 13.6179 1.9824 12.407L2.00526 16.038ZM16.942 1.96896C16.9421 1.96893 16.9426 1.96938 16.9435 1.97041C16.9425 1.9695 16.942 1.96899 16.942 1.96896ZM1.9824 12.4067C1.97188 11.7008 2.19595 11.0623 2.63377 10.4167L1.9824 12.4067Z" stroke="#001C14" stroke-width="2.12398"/>
<path d="M8.02011 31.0731C7.96038 31.0559 7.896 31.0416 7.83509 31.0224C7.39778 30.8809 7.17912 30.5543 7.07239 30.1349C7.00337 29.8568 7.01613 29.5728 7.01277 29.2898C7.00164 26.5047 6.99062 23.7195 6.98017 20.9339C6.9738 19.2581 6.98017 17.5824 6.95409 15.9064C6.93958 14.9381 7.25567 14.0895 7.7887 13.3037C8.19528 12.7048 8.73641 12.2077 9.37036 11.8516C13.5446 9.48594 17.7144 7.11395 21.8786 4.73622C22.167 4.57225 22.4652 4.4405 22.8003 4.40482C23.4564 4.33924 23.9035 4.70514 24.0589 5.31669C24.0857 5.42138 24.1017 5.52898 24.1227 5.63541V19.765C24.0977 19.9184 24.1017 20.075 24.0628 20.2287C23.8844 20.9799 23.5298 21.6428 23.0496 22.2457C22.6704 22.7232 22.192 23.0735 21.6697 23.3837C17.5803 25.8149 13.49 28.2501 9.39879 30.6883C9.16388 30.8373 8.90925 30.9541 8.64189 31.0351C8.5456 31.0611 8.44527 31.0502 8.34899 31.0731H8.02011Z" fill="url(#paint0_linear_893_654)"/>
</g>
<defs>
<linearGradient id="paint0_linear_893_654" x1="3.08013" y1="4.45" x2="24.0801" y2="31.45" gradientUnits="userSpaceOnUse">
<stop stop-color="#00D6A1"/>
<stop offset="1" stop-color="#01775A"/>
</linearGradient>
<clipPath id="clip0_893_654">
<rect width="23.5" height="30.5" fill="white" transform="translate(0.75 0.75)"/>
</clipPath>
</defs>
</svg>
